<svg width="22" height="24" viewBox="0 0 22 24" fill="none" xmlns="http://www.w3.org/2000/svg">
<path d="M20.6001 4.80005C20.9059 4.80039 21.2001 4.9175 21.4225 5.12747C21.6449 5.33743 21.7788 5.62439 21.7967 5.92972C21.8146 6.23505 21.7153 6.5357 21.519 6.77025C21.3227 7.00479 21.0442 7.15552 20.7405 7.19165L20.6001 7.20005H20.5029L19.4001 20.4C19.4001 21.3183 19.0493 22.2019 18.4193 22.87C17.7894 23.5381 16.928 23.9402 16.0113 23.9941L15.8001 24H6.20009C4.28249 24 2.71529 22.5012 2.60969 20.7L2.60369 20.4997L1.49609 7.20005H1.40009C1.09423 7.19971 0.800048 7.08259 0.577645 6.87263C0.355241 6.66267 0.221405 6.37571 0.20348 6.07038C0.185556 5.76505 0.284896 5.46439 0.481204 5.22985C0.677513 4.99531 0.955971 4.84457 1.25969 4.80845L1.40009 4.80005H20.6001Z" fill="white"/>
<path d="M13.4002 0C14.0367 0 14.6472 0.252856 15.0973 0.702944C15.5473 1.15303 15.8002 1.76348 15.8002 2.4C15.7999 2.70586 15.6827 3.00004 15.4728 3.22244C15.2628 3.44485 14.9759 3.57868 14.6705 3.59661C14.3652 3.61453 14.0645 3.51519 13.83 3.31888C13.5955 3.12257 13.4447 2.84412 13.4086 2.5404L13.4002 2.4H8.6002L8.5918 2.5404C8.55567 2.84412 8.40494 3.12257 8.17039 3.31888C7.93585 3.51519 7.6352 3.61453 7.32987 3.59661C7.02454 3.57868 6.73758 3.44485 6.52761 3.22244C6.31765 3.00004 6.20053 2.70586 6.2002 2.4C6.2 1.79451 6.42868 1.21132 6.84039 0.767342C7.2521 0.323365 7.81641 0.051412 8.4202 0.00600014L8.6002 0H13.4002Z" fill="white"/>
</svg>
