<svg width="24" height="24" viewBox="0 0 24 24" fill="none" xmlns="http://www.w3.org/2000/svg">
<path d="M18.4995 0C19.9583 0 21.3574 0.579515 22.3889 1.61106C23.4205 2.6426 24 4.04168 24 5.5005V18.4995C24 19.9583 23.4205 21.3574 22.3889 22.3889C21.3574 23.4205 19.9583 24 18.4995 24H5.5005C4.04168 24 2.6426 23.4205 1.61106 22.3889C0.579515 21.3574 0 19.9583 0 18.4995V5.5005C0 4.04168 0.579515 2.6426 1.61106 1.61106C2.6426 0.579515 4.04168 0 5.5005 0H18.4995ZM12 6C11.6022 6 11.2206 6.15804 10.9393 6.43934C10.658 6.72064 10.5 7.10218 10.5 7.5V10.5H7.5C7.1326 10.5 6.77799 10.6349 6.50344 10.8791C6.22889 11.1232 6.05349 11.4596 6.0105 11.8245L6 12C6 12.3978 6.15804 12.7794 6.43934 13.0607C6.72064 13.342 7.10218 13.5 7.5 13.5H10.5V16.5C10.5 16.8674 10.6349 17.222 10.8791 17.4966C11.1232 17.7711 11.4596 17.9465 11.8245 17.9895L12 18C12.3978 18 12.7794 17.842 13.0607 17.5607C13.342 17.2794 13.5 16.8978 13.5 16.5V13.5H16.5C16.8674 13.5 17.222 13.3651 17.4966 13.1209C17.7711 12.8768 17.9465 12.5404 17.9895 12.1755L18 12C18 11.6022 17.842 11.2206 17.5607 10.9393C17.2794 10.658 16.8978 10.5 16.5 10.5H13.5V7.5C13.5 7.1326 13.3651 6.77799 13.1209 6.50344C12.8768 6.22889 12.5404 6.05349 12.1755 6.0105L12 6Z" fill="white"/>
</svg>
