<svg width="24" height="24" viewBox="0 0 24 24" fill="none" xmlns="http://www.w3.org/2000/svg">
<path d="M20.4 0H3.6C2.64522 0 1.72955 0.379285 1.05442 1.05442C0.379285 1.72955 0 2.64522 0 3.6V20.4C0 21.3548 0.379285 22.2705 1.05442 22.9456C1.72955 23.6207 2.64522 24 3.6 24H20.4C21.3548 24 22.2705 23.6207 22.9456 22.9456C23.6207 22.2705 24 21.3548 24 20.4V3.6C24 2.64522 23.6207 1.72955 22.9456 1.05442C22.2705 0.379285 21.3548 0 20.4 0ZM9.1356 7.452L9.2484 7.5516L12 10.302L14.7516 7.5516C14.9676 7.33638 15.2573 7.21143 15.5621 7.20213C15.8668 7.19282 16.1637 7.29986 16.3923 7.5015C16.621 7.70314 16.7644 7.98426 16.7933 8.28777C16.8222 8.59128 16.7345 8.89441 16.548 9.1356L16.4484 9.2484L13.698 12L16.4484 14.7516C16.6636 14.9676 16.7886 15.2573 16.7979 15.5621C16.8072 15.8668 16.7001 16.1637 16.4985 16.3923C16.2969 16.621 16.0157 16.7644 15.7122 16.7933C15.4087 16.8222 15.1056 16.7345 14.8644 16.548L14.7516 16.4484L12 13.698L9.2484 16.4484C9.03245 16.6636 8.74268 16.7886 8.43794 16.7979C8.1332 16.8072 7.83634 16.7001 7.60767 16.4985C7.37899 16.2969 7.23563 16.0157 7.20672 15.7122C7.17781 15.4087 7.26551 15.1056 7.452 14.8644L7.5516 14.7516L10.302 12L7.5516 9.2484C7.33638 9.03245 7.21143 8.74268 7.20213 8.43794C7.19282 8.1332 7.29986 7.83634 7.5015 7.60767C7.70314 7.37899 7.98426 7.23563 8.28777 7.20672C8.59128 7.17781 8.89441 7.26551 9.1356 7.452Z" fill="#B5B5B5"/>
</svg>
