<svg width="60" height="40" viewBox="0 0 60 40" fill="none" xmlns="http://www.w3.org/2000/svg">
<path d="M3.34772 0L2.97298 0.0200001C2.378 0.0864719 1.81182 0.310779 1.3335 0.669525C0.855182 1.02827 0.482248 1.50831 0.253601 2.05958C0.0249537 2.61084 -0.0510287 3.21313 0.0335773 3.80361C0.118183 4.3941 0.360278 4.95115 0.73461 5.41667L12.4484 20L0.737956 34.5833C0.344094 35.0734 0.0971668 35.6644 0.0256034 36.2881C-0.04596 36.9119 0.0607504 37.5431 0.333449 38.1091C0.606147 38.6751 1.03374 39.1529 1.56701 39.4874C2.10028 39.8219 2.71754 39.9996 3.34772 40H13.2729C13.7741 39.9997 14.2688 39.8872 14.7205 39.6708C15.1722 39.4545 15.5694 39.1398 15.8826 38.75L29.266 22.0833C29.7411 21.4921 30 20.7574 30 20C30 19.2426 29.7411 18.5079 29.266 17.9167L15.8826 1.25C15.5694 0.860211 15.1722 0.545514 14.7205 0.329158C14.2688 0.112801 13.7741 0.000312034 13.2729 0H3.34772Z" fill="white"/>
<path d="M33.3477 0L32.973 0.0200001C32.378 0.0864719 31.8118 0.310779 31.3335 0.669525C30.8552 1.02827 30.4822 1.50831 30.2536 2.05958C30.025 2.61084 29.949 3.21313 30.0336 3.80361C30.1182 4.3941 30.3603 4.95115 30.7346 5.41667L42.4484 20L30.738 34.5833C30.3441 35.0734 30.0972 35.6644 30.0256 36.2881C29.954 36.9119 30.0608 37.5431 30.3334 38.1091C30.6061 38.6751 31.0337 39.1529 31.567 39.4874C32.1003 39.8219 32.7175 39.9996 33.3477 40H43.2729C43.7741 39.9997 44.2688 39.8872 44.7205 39.6708C45.1722 39.4545 45.5694 39.1398 45.8826 38.75L59.266 22.0833C59.7411 21.4921 60 20.7574 60 20C60 19.2426 59.7411 18.5079 59.266 17.9167L45.8826 1.25C45.5694 0.860211 45.1722 0.545514 44.7205 0.329158C44.2688 0.112801 43.7741 0.000312034 43.2729 0H33.3477Z" fill="white"/>
</svg>
