<svg width="28" height="32" viewBox="0 0 64 57" fill="none" xmlns="http://www.w3.org/2000/svg">
<g clip-path="url(#clip0_406_2)">
<path d="M63.9774 28.3889C63.9774 30.3889 62.3107 31.9556 60.4219 31.9556H56.8663L56.9441 49.7556C56.9441 50.0556 56.9218 50.3556 56.8885 50.6556V52.4556C56.8885 54.9111 54.8996 56.9 52.4441 56.9H50.6663C50.5441 56.9 50.4219 56.9 50.2996 56.8889C50.1441 56.9 49.9885 56.9 49.833 56.9L46.2218 56.8889H43.5552C41.0996 56.8889 39.1107 54.9 39.1107 52.4444V49.7778V42.6667C39.1107 40.7 37.5219 39.1111 35.5552 39.1111H28.4441C26.4774 39.1111 24.8885 40.7 24.8885 42.6667V49.7778V52.4444C24.8885 54.9 22.8996 56.8889 20.4441 56.8889H17.7774H14.233C14.0663 56.8889 13.8996 56.8778 13.733 56.8667C13.5996 56.8778 13.4663 56.8889 13.333 56.8889H11.5552C9.09963 56.8889 7.11074 54.9 7.11074 52.4444V40C7.11074 39.9 7.11074 39.7889 7.12185 39.6889V31.9444H3.5663C1.5663 31.9444 0.0107422 30.3889 0.0107422 28.3778C0.0107422 27.3778 0.344076 26.4889 1.12185 25.7111L29.5996 0.888889C30.3774 0.111111 31.2663 0 32.0441 0C32.8218 0 33.7107 0.222222 34.3774 0.777778L62.7552 25.7222C63.6441 26.5 64.0885 27.3889 63.9774 28.3889Z" fill="white"/>
</g>
<defs>
<clipPath id="clip0_406_2">
<rect width="64" height="56.8889" fill="white"/>
</clipPath>
</defs>
</svg>
