<svg xmlns="http://www.w3.org/2000/svg" viewBox="0 0 106.66 92.26"><defs><style>.cls-1{fill:#fff;}</style></defs><g id="Layer_2" data-name="Layer 2"><g id="Layer_1-2" data-name="Layer 1"><path class="cls-1" d="M95.09,23.77A14.4,14.4,0,0,0,81.6,14.4H50l-13-13L36.52,1A4.81,4.81,0,0,0,33.6,0H14.4l-.84,0A14.4,14.4,0,0,0,0,14.4v9.37Z"/><path class="cls-1" d="M56.64,70.75A28.5,28.5,0,0,1,96,44.39V30.15H0V67.2L0,68A14.4,14.4,0,0,0,14.4,81.6H58.79A28.41,28.41,0,0,1,56.64,70.75Z"/><path class="cls-1" d="M85.15,49.24a21.51,21.51,0,1,0,21.51,21.51A21.51,21.51,0,0,0,85.15,49.24Zm7.88,24H87.61v5.42a2.46,2.46,0,1,1-4.92,0V73.21H77.27a2.46,2.46,0,1,1,0-4.92h5.42V62.87a2.46,2.46,0,1,1,4.92,0v5.42H93a2.46,2.46,0,0,1,0,4.92Z"/></g></g></svg>