<svg width="48" height="48" viewBox="0 0 48 48" fill="none" xmlns="http://www.w3.org/2000/svg">
<path d="M24 48C37.2548 48 48 37.2548 48 24C48 10.7452 37.2548 0 24 0C10.7452 0 0 10.7452 0 24C0 37.2548 10.7452 48 24 48Z" fill="url(#paint0_linear_41_560)"/>
<path d="M24.0005 10.8722C24.2388 10.8724 24.4743 10.9231 24.6916 11.0209L34.4016 15.1448C34.9853 15.3867 35.4844 15.796 35.836 16.321C36.1875 16.8461 36.3759 17.4634 36.3773 18.0953C36.3511 23.2102 34.2529 32.569 25.3627 36.8229C24.9377 37.0265 24.4724 37.1322 24.0012 37.1322C23.5299 37.1322 23.0646 37.0265 22.6396 36.8229C13.7544 32.574 11.6512 23.2102 11.625 18.0953C11.6264 17.4634 11.8148 16.8461 12.1664 16.321C12.5179 15.796 13.017 15.3867 13.6007 15.1448L23.3157 11.0209C23.5307 10.9228 23.7642 10.872 24.0005 10.8722Z" fill="white"/>
<defs>
<linearGradient id="paint0_linear_41_560" x1="0" y1="24" x2="48.0013" y2="24" gradientUnits="userSpaceOnUse">
<stop offset="0.01" stop-color="#303030"/>
<stop offset="1" stop-color="#454545"/>
</linearGradient>
</defs>
</svg>
