<svg xmlns="http://www.w3.org/2000/svg" viewBox="0 0 682.66 597.33"><defs><style>.cls-1{fill:#051943;}</style></defs><g id="Layer_2" data-name="Layer 2"><g id="svg2619"><path class="cls-1" d="M341.33,512V495.53a6.21,6.21,0,0,0-6.2-6.2H6.2a6.2,6.2,0,0,0-6.2,6.2V512a85.33,85.33,0,0,0,85.33,85.33H367.15a6.19,6.19,0,0,0,4.42-10.54C352.29,567.69,341.33,541.22,341.33,512Z"/><path class="cls-1" d="M682.66,85.33A65.4,65.4,0,0,0,616.31,20C580.47,20.55,552,50.47,552,86.32V121.8a6.2,6.2,0,0,0,6.2,6.2H676.47a6.19,6.19,0,0,0,6.19-6.2Z"/><path class="cls-1" d="M617.33,0V0c.45,0,.89,0,1.34,0Z"/><path class="cls-1" d="M537.82,0H170.67A85.34,85.34,0,0,0,85.33,85.33V256l-1,193.33h289.8c3.42,0,7.2,2.78,7.2,6.2l-1,56.47a65.33,65.33,0,0,0,65.33,65.33h0A65.55,65.55,0,0,0,511,512v-79.8l1-96.44L511,85.33a105,105,0,0,1,31.25-74.79A6.19,6.19,0,0,0,537.82,0Z"/></g></g></svg>