<svg width="48" height="48" viewBox="0 0 48 48" fill="none" xmlns="http://www.w3.org/2000/svg">
<path fill-rule="evenodd" clip-rule="evenodd" d="M48 23.7622C48 31.673 44.0956 38.681 38.0906 43C37.9144 40.619 36.8806 38.3699 35.1641 36.6704C33.2729 34.798 30.708 33.7461 28.0336 33.7461H19.9664C17.2919 33.7461 14.727 34.798 12.8359 36.6704C11.1194 38.3699 10.0856 40.619 9.90931 43C3.90439 38.6809 0 31.673 0 23.7622C0 10.6387 10.7452 0 24 0C37.2548 0 48 10.6387 48 23.7622ZM29.6024 9.37037C27.9441 8.2733 25.9945 7.68774 24 7.68774C21.4015 7.68789 18.9033 8.68125 17.0264 10.4607C15.1495 12.2401 14.0389 14.6681 13.9261 17.2386L13.916 17.6719C13.916 19.6465 14.5074 21.5769 15.6155 23.2188C16.7235 24.8606 18.2984 26.1403 20.1411 26.896C21.9837 27.6517 24.0112 27.8494 25.9673 27.4642C27.9235 27.0789 29.7203 26.128 31.1305 24.7317C32.5408 23.3354 33.5012 21.5564 33.8903 19.6197C34.2794 17.6829 34.0797 15.6755 33.3165 13.8511C32.5532 12.0267 31.2607 10.4674 29.6024 9.37037Z" fill="white"/>
</svg>
