<svg width="196" height="91" viewBox="0 0 196 91" fill="none" xmlns="http://www.w3.org/2000/svg">
<g clip-path="url(#clip0_129_65)">
<path d="M12.9812 65.0664C12.9812 65.0664 20.4722 72.3989 28.8534 73.3243L27.8058 67.8771C27.8058 67.8771 15.6977 67.5315 13.7598 65.0664H12.9812Z" fill="#CBCBCB"/>
<path d="M136.627 26.5648C141.016 28.5491 144.403 31.3684 146.786 35.0227C149.17 38.677 150.358 43.0017 150.35 47.9966C150.35 52.9287 149.162 57.2371 146.786 60.9219C144.41 64.6067 141.024 67.4251 136.627 69.377C132.229 71.3384 127.047 72.3181 121.081 72.3162H107.493V90.863H91.8845V23.5913H121.081C127.047 23.5913 132.229 24.5825 136.627 26.5648ZM130.902 56.5973C133.341 54.5788 134.561 51.7119 134.561 47.9966C134.561 44.2147 133.341 41.3154 130.902 39.2988C128.464 37.2822 124.898 36.2748 120.206 36.2767H107.493V59.628H120.206C124.892 59.628 128.456 58.6197 130.897 56.603L130.902 56.5973Z" fill="white"/>
<path d="M111.444 59.6993H94.2689L78.1448 23.7312H62.7735L38.9551 77.0521C38.2882 78.5467 38.0063 80.1839 38.1348 81.815C38.2633 83.446 38.7982 85.0191 39.691 86.3913C40.5838 87.7636 41.806 88.8914 43.2467 89.6723C44.6874 90.4533 46.3008 90.8625 47.9403 90.8629H48.7418L56.436 72.2962H84.2017L91.896 90.8629H105.398C105.705 90.8628 106.007 90.7862 106.276 90.64C106.546 90.4937 106.775 90.2826 106.942 90.0257C107.109 89.7688 107.209 89.4744 107.233 89.1691C107.256 88.8638 107.203 88.5575 107.078 88.2778L99.9223 72.2819H111.461L111.444 59.6993ZM71.0087 40.5298L78.9692 59.6993H61.7602L69.7206 40.5184C69.775 40.3923 69.8655 40.2849 69.9807 40.2099C70.096 40.1349 70.2309 40.0955 70.3685 40.0968C70.5061 40.098 70.6403 40.1397 70.7542 40.2168C70.8681 40.2938 70.9566 40.4027 71.0087 40.5298Z" fill="white"/>
<path d="M196 59.6478V82.6192C192.299 85.3648 188.142 87.4388 183.72 88.7462C179.171 90.1531 174.437 90.8724 169.674 90.88C162.913 90.88 156.835 89.4413 151.44 86.5639C146.183 83.8162 141.789 79.6723 138.743 74.5898C135.672 69.4825 134.137 63.7106 134.137 57.2741C134.137 50.8377 135.672 45.0667 138.743 39.9613C141.277 35.726 144.77 32.1417 148.942 29.4954C149.772 28.9612 150.636 28.4614 151.518 27.9872C156.939 25.1308 163.031 23.6921 169.794 23.6711H172.614C192.937 27.8644 195.11 34.1199 195.299 35.9538V36.4822H171.395C171.163 36.4822 170.931 36.4822 170.696 36.4822C170.461 36.4822 170.178 36.4822 169.923 36.4822C166.082 36.5831 162.647 37.4458 159.618 39.0701C156.454 40.7428 153.838 43.288 152.082 46.4026C150.284 49.558 149.385 53.1761 149.385 57.257C149.385 61.2807 150.284 64.8703 152.082 68.0257C153.836 71.1381 156.432 73.6957 159.573 75.4067C162.763 77.172 166.406 78.0537 170.501 78.0518C174.845 78.0518 178.757 77.1234 182.237 75.2668V59.6478H196Z" fill="white"/>
<path d="M46.7037 59.6992C46.7037 59.6992 15.566 59.5564 6.23734 54.3777C4.8834 53.6264 4.56567 53.2037 3.77563 51.8069C3.77563 51.8069 6.29745 64.3752 44.6857 64.2209L46.7037 59.6992Z" fill="#CBCBCB"/>
<path d="M107.493 41.2724C105.885 38.3103 80.8527 38.9873 66.7866 39.8642C66.7866 39.8642 -11.4754 45.8627 14.8133 66.6518C14.195 66.0605 -2.86233 48.5592 107.493 46.037V41.2724Z" fill="#F6B73E"/>
<path d="M195.313 36.4938C194.589 31.9235 172.156 28.3644 148.942 27.7331C123.606 27.0447 97.3404 27.7331 97.3404 27.7331C-13.0038 30.7667 4.78051 53.858 5.3988 54.5578C-20.8956 29.6155 57.3722 22.4173 57.3722 22.4173C119.69 17.6871 157.686 18.4183 176.45 22.2774C196.773 26.4706 195.139 34.1201 195.342 35.9653C195.355 36.142 195.345 36.3196 195.313 36.4938Z" fill="#F6B73E"/>
<path d="M25.3786 74.4642C25.3786 39.2302 48.0062 9.49195 78.9693 0.125732C55.211 12.4455 38.6546 37.6163 37.7501 66.8947C37.7215 67.7516 37.71 68.6085 37.71 69.4512C37.7083 73.3239 37.9838 77.1918 38.5344 81.0254C38.5773 81.4196 38.6346 81.8052 38.7119 82.188C39.3903 85.5786 42.3758 89.2119 48.7447 90.8515C48.7447 90.8515 25.5017 92.9881 25.2412 80.4113L25.3786 74.4642Z" fill="#F6B73E"/>
<path d="M78.9692 0.125687C78.9692 0.125687 86.111 -2.91641 78.9692 20.9319L73.9084 21.2518C73.9084 21.2518 81.7143 -1.45106 78.3653 0.442751" fill="#CBCBCB"/>
<path d="M196 53.4209H172.694V65.9977H196V53.4209Z" fill="white"/>
</g>
<defs>
<clipPath id="clip0_129_65">
<rect width="196" height="91" fill="white"/>
</clipPath>
</defs>
</svg>
