<svg width="150" height="70" viewBox="0 0 150 70" fill="none" xmlns="http://www.w3.org/2000/svg">
<path d="M9.93457 50.0513C9.93457 50.0513 15.6675 55.6916 22.0817 56.4035L21.2799 52.2134C21.2799 52.2134 12.0135 51.9475 10.5304 50.0513H9.93457Z" fill="#00335B"/>
<path d="M104.562 20.4343C107.921 21.9607 110.513 24.1294 112.337 26.9404C114.161 29.7514 115.07 33.078 115.064 36.9203C115.064 40.7142 114.155 44.0284 112.337 46.8628C110.519 49.6973 107.927 51.8652 104.562 53.3667C101.196 54.8755 97.2302 55.6291 92.6649 55.6277H82.2659V69.8944H70.3203V18.147H92.6649C97.2302 18.147 101.196 18.9094 104.562 20.4343ZM100.181 43.5362C102.047 41.9835 102.981 39.7782 102.981 36.9203C102.981 34.0111 102.047 31.7809 100.181 30.2297C98.3146 28.6784 95.5857 27.9035 91.9946 27.905H82.2659V45.8675H91.9946C95.5814 45.8675 98.3087 45.0919 100.177 43.5406L100.181 43.5362Z" fill="#003383"/>
<path d="M85.289 45.9227H72.1451L59.8052 18.2549H48.0414L29.8131 59.271C29.3027 60.4207 29.0869 61.6801 29.1853 62.9347C29.2836 64.1893 29.693 65.3994 30.3763 66.455C31.0595 67.5105 31.9949 68.3781 33.0975 68.9788C34.2 69.5795 35.4348 69.8944 36.6895 69.8947H37.3029L43.1914 55.6125H64.4406L70.3291 69.8947H80.6623C80.8972 69.8946 81.1282 69.8356 81.3345 69.7232C81.5409 69.6107 81.7159 69.4483 81.8437 69.2507C81.9714 69.0531 82.0479 68.8265 82.0662 68.5917C82.0845 68.3569 82.0439 68.1212 81.9482 67.9061L76.4716 55.6015H85.3021L85.289 45.9227ZM54.3439 31.1769L60.4361 45.9227H47.266L53.3581 31.1681C53.3997 31.0711 53.469 30.9885 53.5572 30.9308C53.6454 30.8731 53.7486 30.8428 53.8539 30.8438C53.9593 30.8447 54.0619 30.8768 54.1491 30.9361C54.2363 30.9954 54.3041 31.0791 54.3439 31.1769Z" fill="#003383"/>
<path d="M150 45.8829V63.5532C147.168 65.6652 143.987 67.2605 140.603 68.2663C137.121 69.3485 133.498 69.9017 129.853 69.9076C124.679 69.9076 120.027 68.8009 115.899 66.5876C111.875 64.4739 108.512 61.2863 106.181 57.3767C103.831 53.448 102.656 49.0081 102.656 44.0569C102.656 39.1058 103.831 34.6666 106.181 30.7394C108.12 27.4815 110.794 24.7243 113.986 22.6887C114.622 22.2778 115.283 21.8933 115.958 21.5285C120.107 19.3313 124.769 18.2246 129.945 18.2085H132.103C147.656 21.4341 149.319 26.246 149.464 27.6567V28.0632H131.17C130.992 28.0632 130.815 28.0632 130.635 28.0632C130.456 28.0632 130.239 28.0632 130.044 28.0632C127.104 28.1408 124.475 28.8044 122.157 30.0539C119.735 31.3406 117.733 33.2984 116.389 35.6942C115.014 38.1214 114.326 40.9046 114.326 44.0438C114.326 47.139 115.014 49.9002 116.389 52.3274C117.732 54.7215 119.719 56.6889 122.122 58.0051C124.564 59.363 127.352 60.0412 130.486 60.0397C133.81 60.0397 136.804 59.3256 139.468 57.8974V45.8829H150Z" fill="#003383"/>
<path d="M35.7427 45.9226C35.7427 45.9226 11.9129 45.8127 4.7736 41.8291C3.73743 41.2512 3.49427 40.926 2.88965 39.8516C2.88965 39.8516 4.81961 49.5195 34.1983 49.4008L35.7427 45.9226Z" fill="#00335B"/>
<path d="M82.2654 31.7483C81.0343 29.4697 61.8771 29.9905 51.1123 30.665C51.1123 30.665 -8.78214 35.2792 11.3367 51.2708C10.8636 50.816 -2.19049 37.3534 82.2654 35.4133V31.7483Z" fill="#F6B73E"/>
<path d="M149.475 28.072C148.921 24.5564 131.752 21.8186 113.986 21.333C94.5969 20.8035 74.4956 21.333 74.4956 21.333C-9.95158 23.6665 3.65889 41.429 4.13207 41.9674C-15.9912 22.781 43.9076 17.2439 43.9076 17.2439C91.6001 13.6053 120.679 14.1678 135.038 17.1362C150.592 20.3618 149.341 26.246 149.497 27.6655C149.507 27.8013 149.499 27.9379 149.475 28.072Z" fill="#F6B73E"/>
<path d="M19.4225 57.2801C19.4225 30.177 36.7396 7.30146 60.4358 0.0966797C42.2534 9.57342 29.5827 28.9356 28.8905 51.4574C28.8686 52.1166 28.8598 52.7758 28.8598 53.4239C28.8585 56.403 29.0694 59.3783 29.4907 62.3272C29.5236 62.6304 29.5674 62.9271 29.6266 63.2215C30.1457 65.8296 32.4306 68.6245 37.3048 69.8857C37.3048 69.8857 19.5167 71.5293 19.3174 61.8548L19.4225 57.2801Z" fill="#F6B73E"/>
<path d="M60.4356 0.0966827C60.4356 0.0966827 65.9012 -2.24339 60.4356 16.1015L56.5625 16.3475C56.5625 16.3475 62.5364 -1.1162 59.9733 0.340577" fill="#00335B"/>
<path d="M150 41.0928H132.164V50.7673H150V41.0928Z" fill="#003383"/>
</svg>
