<svg width="25" height="25" viewBox="0 0 25 25" fill="none" xmlns="http://www.w3.org/2000/svg">
<path d="M13.1145 13.5417L10.7187 15.9271C10.621 16.0239 10.5435 16.1392 10.4907 16.2661C10.4378 16.393 10.4105 16.5292 10.4105 16.6667C10.4105 16.8042 10.4378 16.9404 10.4907 17.0673C10.5435 17.1942 10.621 17.3094 10.7187 17.4063C10.8155 17.5039 10.9307 17.5814 11.0577 17.6343C11.1846 17.6872 11.3207 17.7144 11.4583 17.7144C11.5958 17.7144 11.7319 17.6872 11.8589 17.6343C11.9858 17.5814 12.101 17.5039 12.1978 17.4063L16.3645 13.2396C16.4593 13.1405 16.5337 13.0237 16.5833 12.8959C16.6874 12.6423 16.6874 12.3578 16.5833 12.1042C16.5337 11.9763 16.4593 11.8595 16.3645 11.7604L12.1978 7.59377C12.1007 7.49665 11.9854 7.41961 11.8585 7.36704C11.7316 7.31448 11.5956 7.28743 11.4583 7.28743C11.3209 7.28743 11.1849 7.31448 11.058 7.36704C10.9311 7.41961 10.8158 7.49665 10.7187 7.59377C10.6215 7.6909 10.5445 7.8062 10.4919 7.9331C10.4394 8.05999 10.4123 8.196 10.4123 8.33336C10.4123 8.47071 10.4394 8.60672 10.4919 8.73362C10.5445 8.86051 10.6215 8.97582 10.7187 9.07294L13.1145 11.4584H3.12492C2.84865 11.4584 2.5837 11.5681 2.38835 11.7635C2.193 11.9588 2.08325 12.2238 2.08325 12.5C2.08325 12.7763 2.193 13.0412 2.38835 13.2366C2.5837 13.4319 2.84865 13.5417 3.12492 13.5417H13.1145ZM12.4999 2.08336C10.5531 2.07466 8.64288 2.6117 6.98582 3.63356C5.32876 4.65541 3.99122 6.12118 3.12492 7.86461C3.0006 8.11325 2.98014 8.40109 3.06805 8.66481C3.15596 8.92853 3.34503 9.14653 3.59367 9.27086C3.84231 9.39518 4.13015 9.41563 4.39387 9.32772C4.6576 9.23982 4.8756 9.05075 4.99992 8.80211C5.65845 7.47223 6.66016 6.34233 7.90153 5.52918C9.1429 4.71602 10.5789 4.2491 12.0611 4.17668C13.5433 4.10426 15.018 4.42896 16.3328 5.11722C17.6475 5.80548 18.7546 6.83235 19.5396 8.09168C20.3247 9.35102 20.7592 10.7972 20.7983 12.2806C20.8373 13.7641 20.4796 15.2311 19.7619 16.53C19.0443 17.829 17.9928 18.9127 16.7161 19.6692C15.4394 20.4257 13.9839 20.8276 12.4999 20.8334C10.9467 20.8401 9.42299 20.4087 8.10376 19.5888C6.78453 18.7689 5.7232 17.5937 5.04159 16.1979C4.91727 15.9493 4.69926 15.7602 4.43554 15.6723C4.17182 15.5844 3.88398 15.6049 3.63534 15.7292C3.38669 15.8535 3.19762 16.0715 3.10972 16.3352C3.02181 16.599 3.04226 16.8868 3.16659 17.1354C3.99245 18.7974 5.24734 20.2086 6.80145 21.223C8.35556 22.2374 10.1525 22.8181 12.0063 22.9052C13.8601 22.9923 15.7035 22.5825 17.3459 21.7183C18.9883 20.854 20.3699 19.5667 21.3479 17.9894C22.3259 16.4122 22.8648 14.6022 22.9088 12.7469C22.9528 10.8916 22.5003 9.05814 21.5981 7.43631C20.6959 5.81447 19.3768 4.46311 17.7773 3.52201C16.1777 2.5809 14.3558 2.08423 12.4999 2.08336V2.08336Z" fill="#04173E"/>
</svg>
