<svg width="22" height="25" viewBox="0 0 22 25" fill="none" xmlns="http://www.w3.org/2000/svg">
<path d="M13.7315 20.9441C14.7888 20.9441 15.3473 22.2057 14.6421 22.9991C14.184 23.5158 13.6227 23.9292 12.995 24.212C12.3673 24.4948 11.6874 24.6407 10.9999 24.6401C10.3123 24.6407 9.63245 24.4948 9.00477 24.212C8.37708 23.9292 7.81578 23.5158 7.35766 22.9991C6.68299 22.2402 7.16455 21.0537 8.13255 20.9527L8.26699 20.9453L13.7315 20.9441Z" fill="#071E4E"/>
<path d="M10.9999 0C12.6597 0 14.0628 1.1125 14.5138 2.63771L14.57 2.84838L14.5798 2.90136C15.9271 3.66754 17.0753 4.74456 17.9301 6.04419C18.785 7.34382 19.3223 8.8291 19.498 10.3784L19.5322 10.732L19.5554 11.088V14.699L19.5811 14.8665C19.7485 15.7743 20.2468 16.5861 20.9781 17.142L21.1822 17.2862L21.3802 17.4082C22.4313 18.0081 22.0647 19.5839 20.9194 19.7046L20.7777 19.712H1.2221C-0.0343409 19.712 -0.473119 18.0316 0.619548 17.4082C1.08525 17.1425 1.48763 16.7773 1.79843 16.3383C2.10923 15.8992 2.32093 15.3969 2.41866 14.8665L2.44433 14.6904L2.44555 11.0313C2.52007 9.42219 2.98474 7.85598 3.7989 6.46981C4.61305 5.08363 5.75186 3.91974 7.11566 3.08L7.41877 2.90013L7.43099 2.84715C7.60388 2.11045 7.99682 1.44494 8.55676 0.94043C9.11671 0.435926 9.81672 0.116713 10.5623 0.0258719L10.7848 0.00492794L10.9999 0Z" fill="#071E4E"/>
</svg>
