<svg width="22" height="19" viewBox="0 0 22 19" fill="none" xmlns="http://www.w3.org/2000/svg">
<path d="M7.7 3.7223e-09C7.94178 -1.98796e-05 8.17683 0.0796188 8.3688 0.2266L8.4788 0.3223L11.4554 3.3H18.7C19.5417 3.29995 20.3517 3.62156 20.9641 4.19901C21.5765 4.77647 21.9451 5.56612 21.9945 6.4064L22 6.6V15.4C22 16.2417 21.6784 17.0517 21.101 17.6641C20.5235 18.2765 19.7339 18.6451 18.8936 18.6945L18.7 18.7H3.3C2.45827 18.7 1.64833 18.3784 1.03591 17.801C0.423492 17.2235 0.0548817 16.4339 0.00550013 15.5936L5.12649e-09 15.4V3.3C-4.68839e-05 2.45827 0.321558 1.64833 0.899012 1.03591C1.47647 0.423492 2.26612 0.0548817 3.1064 0.00550013L3.3 3.7223e-09H7.7Z" fill="white"/>
</svg>
