<svg xmlns="http://www.w3.org/2000/svg" viewBox="0 0 18 23"><defs><style>.cls-1{fill:#ffffff;}</style></defs><g id="Layer_2" data-name="Layer 2"><g id="Layer_1-2" data-name="Layer 1"><path class="cls-1" d="M7.67,0A1.82,1.82,0,0,0,6.46.46,1.45,1.45,0,0,0,6,1.5a1.45,1.45,0,0,0,.46,1A1.82,1.82,0,0,0,7.67,3h2.66a1.82,1.82,0,0,0,1.21-.46,1.41,1.41,0,0,0,0-2.08A1.82,1.82,0,0,0,10.33,0Z"/><path class="cls-1" d="M7.67,3h2.66a1.82,1.82,0,0,0,1.21-.46A1.6,1.6,0,0,0,11.9,2H6.1a1.6,1.6,0,0,0,.36.54A1.82,1.82,0,0,0,7.67,3Z"/><path class="cls-1" d="M17.25,2.77A2.58,2.58,0,0,0,15.43,2H14a3.52,3.52,0,0,1-1,2,3.76,3.76,0,0,1-2.57,1H7.67A3.76,3.76,0,0,1,5.1,4a3.52,3.52,0,0,1-1-2H2.57a2.58,2.58,0,0,0-1.82.77A2.65,2.65,0,0,0,0,4.62V20.37a2.66,2.66,0,0,0,.75,1.86A2.58,2.58,0,0,0,2.57,23H15.43a2.58,2.58,0,0,0,1.82-.77A2.66,2.66,0,0,0,18,20.37V4.62A2.65,2.65,0,0,0,17.25,2.77ZM13,17H5a1,1,0,0,1,0-2h8a1,1,0,0,1,0,2Zm0-5H5a1,1,0,0,1,0-2h8a1,1,0,0,1,0,2Z"/></g></g></svg>