<svg width="22" height="22" viewBox="0 0 22 22" fill="none" xmlns="http://www.w3.org/2000/svg">
<path d="M10.5 0C11.5878 0 12.6512 0.322569 13.5556 0.926917C14.4601 1.53126 15.1651 2.39025 15.5813 3.39524C15.9976 4.40023 16.1065 5.5061 15.8943 6.573C15.6821 7.63989 15.1583 8.6199 14.3891 9.38909C13.6199 10.1583 12.6399 10.6821 11.573 10.8943C10.5061 11.1065 9.40024 10.9976 8.39524 10.5813C7.39025 10.1651 6.53126 9.46011 5.92692 8.55564C5.32257 7.65117 5 6.5878 5 5.5L5.0055 5.2613C5.06701 3.84533 5.67277 2.50776 6.69645 1.52753C7.72012 0.547296 9.08269 8.18867e-05 10.5 0Z" fill="white"/>
<path d="M12.9286 13C14.5388 13 16.0831 13.5926 17.2217 14.6475C18.3603 15.7024 19 17.1332 19 18.625V19.75C19 20.3467 18.7441 20.919 18.2887 21.341C17.8332 21.7629 17.2155 22 16.5714 22H4.42857C3.78447 22 3.16676 21.7629 2.71131 21.341C2.25587 20.919 2 20.3467 2 19.75V18.625C2 17.1332 2.63967 15.7024 3.77828 14.6475C4.91689 13.5926 6.46119 13 8.07143 13H12.9286Z" fill="white"/>
</svg>
