<svg xmlns="http://www.w3.org/2000/svg" viewBox="0 0 115.15 99.29"><defs><style>.cls-1{fill:#fff;}</style></defs><g id="Layer_2" data-name="Layer 2"><g id="Layer_1-2" data-name="Layer 1"><path class="cls-1" d="M114.82,85a65.91,65.91,0,0,0-2.88-14.06A60.68,60.68,0,0,0,96.28,45.66,71.53,71.53,0,0,0,84,36.35c-1.11-.64-2.25-1.24-3.38-1.86-.56-.31-1.13-.63-1.7-.92l-1.75-.8c-1.16-.53-2.33-1.08-3.51-1.59l-3.58-1.36-1.81-.68c-.6-.21-1.21-.38-1.81-.57l-3.66-1.12-.92-.28L61,27l-1.85-.44-3.7-.89c-2.47-.46-5-.91-7.45-1.33l-7.48-.93v-22a1.33,1.33,0,0,0-2.22-1L.44,34.39a1.33,1.33,0,0,0,0,2l37.85,34a1.33,1.33,0,0,0,2.22-1v-22a98,98,0,0,1,25,0l3.07.45,3,.65,1.51.33c.49.13,1,.28,1.46.42l3,.87A58.23,58.23,0,0,1,88.6,55.32,51.07,51.07,0,0,1,106,73.48a61,61,0,0,1,5.34,12.18,62.58,62.58,0,0,1,1.73,6.56,53.05,53.05,0,0,1,1,6.75v0a.31.31,0,0,0,.28.29.32.32,0,0,0,.36-.27,52.75,52.75,0,0,0,.46-7A64.39,64.39,0,0,0,114.82,85Z"/></g></g></svg>