<svg width="22" height="24" viewBox="0 0 22 24" fill="none" xmlns="http://www.w3.org/2000/svg">
<path d="M13.734 20.3999C14.7912 20.3999 15.3498 21.6287 14.6445 22.4015C14.1864 22.9048 13.6251 23.3074 12.9974 23.5829C12.3697 23.8584 11.6899 24.0005 11.0023 23.9999C10.3148 24.0005 9.63489 23.8584 9.00721 23.5829C8.37953 23.3074 7.81822 22.9048 7.3601 22.4015C6.68543 21.6623 7.16699 20.5067 8.13499 20.4083L8.26943 20.4011L13.734 20.3999Z" fill="white"/>
<path d="M11.0023 0C12.6621 0 14.0652 1.0836 14.5162 2.56919L14.5724 2.77439L14.5822 2.82599C15.9296 3.57227 17.0777 4.62131 17.9326 5.88718C18.7875 7.15305 19.3247 8.59974 19.5004 10.1088L19.5347 10.4532L19.5579 10.8V14.3171L19.5835 14.4803C19.7509 15.3645 20.2493 16.1552 20.9805 16.6967L21.1847 16.8371L21.3827 16.9559C22.4338 17.5403 22.0671 19.0751 20.9219 19.1927L20.7801 19.1999H1.22454C-0.0318995 19.1999 -0.470677 17.5631 0.621989 16.9559C1.08769 16.6972 1.49007 16.3415 1.80087 15.9138C2.11167 15.4862 2.32337 14.9969 2.4211 14.4803L2.44677 14.3087L2.44799 10.7448C2.52251 9.17742 2.98718 7.6519 3.80134 6.30174C4.61549 4.95157 5.7543 3.81791 7.1181 2.99999L7.42121 2.82479L7.43343 2.77319C7.60632 2.05562 7.99926 1.4074 8.55921 0.916C9.11916 0.424601 9.81917 0.113681 10.5648 0.0251998L10.7872 0.00479992L11.0023 0Z" fill="white"/>
</svg>
