<svg width="56" height="56" viewBox="0 0 56 56" fill="none" xmlns="http://www.w3.org/2000/svg">
<path d="M28 0C12.5393 0 0 12.537 0 28C0 40.3713 8.022 50.8667 19.1497 54.5697C20.5473 54.8287 21 53.9607 21 53.2233V48.0107C13.2113 49.7047 11.5897 44.7067 11.5897 44.7067C10.3157 41.4703 8.47933 40.6093 8.47933 40.6093C5.93833 38.871 8.673 38.9083 8.673 38.9083C11.4847 39.1043 12.964 41.7947 12.964 41.7947C15.4607 46.074 19.5137 44.8373 21.112 44.121C21.3617 42.3127 22.0873 41.076 22.89 40.3783C16.6717 39.6667 10.1337 37.2657 10.1337 26.5393C10.1337 23.4803 11.228 20.9837 13.0177 19.0237C12.7283 18.3167 11.7693 15.4677 13.2907 11.613C13.2907 11.613 15.6427 10.8617 20.993 14.483C23.226 13.8623 25.62 13.552 28 13.5403C30.38 13.552 32.7763 13.8623 35.014 14.483C40.3597 10.8617 42.707 11.613 42.707 11.613C44.2307 15.47 43.2717 18.319 42.9823 19.0237C44.779 20.9837 45.864 23.4827 45.864 26.5393C45.864 37.2937 39.3143 39.662 33.0797 40.355C34.083 41.223 35 42.9263 35 45.5397V53.2233C35 53.9677 35.448 54.8427 36.869 54.5673C47.9873 50.8597 56 40.3667 56 28C56 12.537 43.463 0 28 0Z" fill="white"/>
</svg>
