<svg xmlns="http://www.w3.org/2000/svg" viewBox="0 0 126.79 92.16"><defs><style>.cls-1{fill:#fff;}</style></defs><g id="Layer_2" data-name="Layer 2"><g id="Layer_1-2" data-name="Layer 1"><path class="cls-1" d="M1.36,41.69a1.16,1.16,0,0,1-.89-.38,1.25,1.25,0,0,1-.36-.87,2.15,2.15,0,0,1,.06-.53L14.34,1.61A2.25,2.25,0,0,1,15.06.48,2.15,2.15,0,0,1,16.55,0h7.62a2.15,2.15,0,0,1,1.49.48,2.25,2.25,0,0,1,.72,1.13l14.17,38.3a2.15,2.15,0,0,1,.06.53,1.25,1.25,0,0,1-.36.87,1.16,1.16,0,0,1-.89.38H33.17a1.85,1.85,0,0,1-1.32-.41,2.2,2.2,0,0,1-.53-.78l-2.56-6.67H12L9.4,40.5a2.12,2.12,0,0,1-.54.78,1.8,1.8,0,0,1-1.31.41ZM14.17,26.15H26.49L20.36,9Z"/><path class="cls-1" d="M89.28,92.16q-12.28,0-20.54-3.58T56.26,79.23a21.87,21.87,0,0,1-4.48-12.29,2.62,2.62,0,0,1,.77-1.85,2.48,2.48,0,0,1,1.92-.83H68.16a4.06,4.06,0,0,1,2.56.7,9.5,9.5,0,0,1,1.67,1.73,13.24,13.24,0,0,0,2.88,4.22A14.86,14.86,0,0,0,80.7,74.3a23.76,23.76,0,0,0,8.58,1.35q8.32,0,12.48-2.69a8.29,8.29,0,0,0,4.16-7.3,6.94,6.94,0,0,0-2.24-5.37,20.39,20.39,0,0,0-7-3.71Q91.84,54.92,83.91,53a71.39,71.39,0,0,1-16.32-5.31,24.42,24.42,0,0,1-10.12-8.45,23,23,0,0,1-3.39-12.86,22.92,22.92,0,0,1,4.23-13.63,28,28,0,0,1,11.9-9.35A45.09,45.09,0,0,1,88.51,0a46,46,0,0,1,15.17,2.3,34.92,34.92,0,0,1,11,6,28.18,28.18,0,0,1,6.72,7.94,18.3,18.3,0,0,1,2.43,8.19,2.62,2.62,0,0,1-.77,1.85,2.49,2.49,0,0,1-1.92.84H106.82a5,5,0,0,1-2.31-.52,3.79,3.79,0,0,1-1.66-1.79c-.51-2.22-2-4.16-4.54-5.82a17.44,17.44,0,0,0-9.8-2.5q-6.27,0-9.92,2.31a7.74,7.74,0,0,0-3.64,7A7.56,7.56,0,0,0,76.8,31a15.12,15.12,0,0,0,6.27,3.71q4.43,1.61,11.72,3.52a87.52,87.52,0,0,1,18.3,5.51q7,3.19,10.37,8.25t3.33,12.74A23.2,23.2,0,0,1,122,79.49,30.15,30.15,0,0,1,108.8,88.9,53.77,53.77,0,0,1,89.28,92.16Z"/><path class="cls-1" d="M46.29,82.78a27.93,27.93,0,0,1-5.64-15.6V67h0V55.54a6,6,0,0,0-6-6H6a6,6,0,0,0-6,6V86.16a6,6,0,0,0,6,6H57.33A33.44,33.44,0,0,1,46.29,82.78Z"/></g></g></svg>